<svg id="Capa_1" enable-background="new 0 0 512 512" height="512" viewBox="0 0 512 512" width="512" xmlns="http://www.w3.org/2000/svg" xmlns:xlink="http://www.w3.org/1999/xlink"><linearGradient id="SVGID_1_" gradientUnits="userSpaceOnUse" x1="256" x2="256" y1="512" y2="0"><stop offset="0" stop-color="#67757c"/><stop offset="1" stop-color="#67757c"/></linearGradient><g><g><g><path d="m465.801 393.602c-6.334-34.986-37.017-61.602-73.801-61.602-24.453 0-47.185 12.099-61.087 31.713-25.702-6.404-52.756 5.527-65.916 28.693-29.797 3.48-52.997 28.879-52.997 59.594 0 33.084 26.916 60 60 60h180c33.084 0 60-26.916 60-60 0-28.337-19.744-52.148-46.199-58.398zm-13.801 88.398h-180c-16.542 0-30-13.458-30-30s13.458-30 30-30c.549-.148 12.748 1.671 16.888-9.976 5.665-15.938 24.292-25.548 41.747-16.531 7.597 3.924 16.963.709 20.528-7.094 7.326-16.037 23.355-26.399 40.837-26.399 24.813 0 45 20.187 45 45 0 8.284 6.716 15 15 15 16.542 0 30 13.458 30 30s-13.458 30-30 30zm-305.394-86.606c-5.857-5.858-15.355-5.858-21.213 0s-5.858 15.355 0 21.213l4.394 4.394h-23.787c-24.813 0-45-20.187-45-45v-150.001c0-8.284-6.716-15-15-15s-15 6.716-15 15v150c0 41.355 33.645 75 75 75h23.787l-4.394 4.394c-5.858 5.858-5.858 15.355 0 21.213 5.857 5.857 15.355 5.858 21.213 0l29.997-29.998c5.92-5.918 5.761-15.459 0-21.218zm218.788-278.788c5.857 5.857 15.355 5.858 21.213 0s5.858-15.355 0-21.213l-4.394-4.393h23.787c24.813 0 45 20.187 45 45v150c0 8.284 6.716 15 15 15s15-6.716 15-15v-150c0-41.355-33.645-75-75-75h-23.787l4.394-4.394c5.858-5.858 5.858-15.355 0-21.213-5.857-5.858-15.355-5.858-21.213 0l-29.997 29.998c-5.84 5.838-5.86 15.359 0 21.218zm-125.394 63.394c33.084 0 60-26.916 60-60 0-28.337-19.744-52.148-46.199-58.398-6.334-34.986-37.017-61.602-73.801-61.602-24.453 0-47.185 12.099-61.087 31.713-25.702-6.404-52.756 5.527-65.916 28.693-29.797 3.48-52.997 28.879-52.997 59.594 0 33.084 26.916 60 60 60zm-210-60c0-16.542 13.458-30 30-30 .549-.148 12.748 1.671 16.888-9.976 5.665-15.938 24.292-25.548 41.747-16.531 7.6 3.924 16.964.708 20.528-7.094 7.326-16.037 23.355-26.399 40.837-26.399 24.813 0 45 20.187 45 45 0 8.284 6.716 15 15 15 16.542 0 30 13.458 30 30s-13.458 30-30 30h-180c-16.542 0-30-13.458-30-30z" fill="url(#SVGID_1_)"/></g></g></g></svg>