<svg id="Capa_1" enable-background="new 0 0 512 512" height="512" viewBox="0 0 512 512" width="512" xmlns="http://www.w3.org/2000/svg" xmlns:xlink="http://www.w3.org/1999/xlink"><linearGradient id="SVGID_1_" gradientUnits="userSpaceOnUse" x1="256" x2="256" y1="512" y2="0"><stop offset="0" stop-color="#67757c"/><stop offset="1" stop-color="#67757c"/></linearGradient><g><g><path d="m497 482h-16v-317c0-8.291-6.709-15-15-15h-60c-8.291 0-15 6.709-15 15v317h-30v-227c0-8.291-6.709-15-15-15h-60c-8.291 0-15 6.709-15 15v227h-30v-137c0-8.291-6.709-15-15-15h-60c-8.291 0-15 6.709-15 15v137h-30v-227c0-8.291-6.709-15-15-15h-60c-8.291 0-15 6.709-15 15v227h-16c-8.291 0-15 6.709-15 15s6.709 15 15 15h482c8.291 0 15-6.709 15-15s-6.709-15-15-15zm-406 0h-30v-212h30zm120 0h-30v-122h30zm120 0h-30v-212h30zm120 0h-30v-302h30zm-265.605-216.395c2.93 2.93 6.768 4.395 10.605 4.395s7.676-1.465 10.605-4.395l214.395-214.394v23.789c0 8.291 6.709 15 15 15s15-6.709 15-15v-60c0-8.271-6.79-15-15-15h-60c-8.291 0-15 6.709-15 15s6.709 15 15 15h23.789l-203.789 203.789-109.395-109.394c-5.859-5.859-15.352-5.859-21.211 0s-5.859 15.352 0 21.211z" fill="url(#SVGID_1_)"/></g></g></svg>