<svg id="Capa_1" enable-background="new 0 0 512.009 512.009" height="512" viewBox="0 0 512.009 512.009" width="512" xmlns="http://www.w3.org/2000/svg" xmlns:xlink="http://www.w3.org/1999/xlink"><linearGradient id="SVGID_1_" gradientUnits="userSpaceOnUse" x1="256.005" x2="256.005" y1="512.009" y2="0"><stop offset="0" stop-color="#67757c"/><stop offset="1" stop-color="#67757c"/></linearGradient><g><g><path d="m497.004 30h-226v-15c0-8.291-6.709-15-15-15s-15 6.709-15 15v15h-226c-8.291 0-15 6.709-15 15v302c0 8.291 6.709 15 15 15h209.781l-100.499 125.625c-5.171 6.475-4.116 15.908 2.343 21.094 6.504 5.2 15.909 4.102 21.094-2.344l93.281-116.614v107.239c0 8.291 6.709 15 15 15s15-6.709 15-15v-107.239l93.281 116.614c2.974 3.691 7.324 5.625 11.733 5.625 3.281 0 6.592-1.069 9.36-3.281 6.46-5.186 7.515-14.619 2.344-21.094l-100.498-125.625h209.781c8.291 0 15-6.709 15-15v-302c-.001-8.291-6.709-15-15.001-15zm-15 302h-452v-272h452zm-376-30h120c8.291 0 15-6.709 15-15v-152c0-8.291-6.709-15-15-15h-45v-15c0-8.291-6.709-15-15-15s-15 6.709-15 15v15h-45c-8.291 0-15 6.709-15 15v152c0 8.291 6.709 15 15 15zm15-152h90v122h-90zm165 152h120c8.291 0 15-6.709 15-15v-152c0-8.291-6.709-15-15-15h-45v-15c0-8.291-6.709-15-15-15s-15 6.709-15 15v15h-45c-8.291 0-15 6.709-15 15v152c0 8.291 6.709 15 15 15zm15-152h90v122h-90z" fill="url(#SVGID_1_)"/></g></g></svg>