<svg id="Capa_1" enable-background="new 0 0 512 512" height="512" viewBox="0 0 512 512" width="512" xmlns="http://www.w3.org/2000/svg" xmlns:xlink="http://www.w3.org/1999/xlink"><linearGradient id="SVGID_1_" gradientUnits="userSpaceOnUse" x1="256" x2="256" y1="512" y2="0"><stop offset="0" stop-color="#67757c"/><stop offset="1" stop-color="#67757c"/></linearGradient><g><g><g><path d="m436 362c4.051 0 7.916-1.703 10.604-4.391l.002-.002 30-30c5.858-5.858 5.858-15.355 0-21.213-5.857-5.857-15.355-5.857-21.213 0l-25.606 25.606h-38.787v-8.787l55.606-55.606c2.814-2.814 4.394-6.629 4.394-10.607v-60c0-8.284-6.716-15-15-15s-15 6.716-15 15v53.787l-30 30v-23.787c0-30.692-18.539-57.122-45-68.719v-6.281c0-19.411-6.177-37.405-16.669-52.123 29.66-29.744 46.669-71.6 46.669-114.877 0-8.284-6.716-15-15-15s-15 6.716-15 15c0 34.857-14.159 69.853-37.883 93.665-14.716-10.489-32.709-16.665-52.117-16.665s-37.401 6.176-52.118 16.665c-23.723-23.812-37.882-58.808-37.882-93.665 0-8.284-6.716-15-15-15s-15 6.716-15 15c0 43.276 17.008 85.133 46.668 114.878-10.491 14.717-16.668 32.711-16.668 52.122v6.281c-26.461 11.597-45 38.027-45 68.719v23.787l-30-30v-53.787c0-8.284-6.716-15-15-15s-15 6.716-15 15v60c0 3.978 1.581 7.793 4.394 10.607l55.606 55.606v8.787h-38.787l-25.607-25.607c-5.857-5.857-15.355-5.857-21.213 0-5.858 5.858-5.858 15.355 0 21.213l30 30 .002.002c2.649 2.649 6.503 4.392 10.605 4.392h45v8.787l-55.606 55.606c-2.814 2.814-4.394 6.629-4.394 10.607v60c0 8.284 6.716 15 15 15s15-6.716 15-15v-53.787l33.591-33.591c13.915 58.63 66.709 102.378 129.534 102.378h3.75c62.825 0 115.619-43.748 129.534-102.378l33.591 33.591v53.787c0 8.284 6.716 15 15 15s15-6.716 15-15v-60c0-3.978-1.58-7.793-4.394-10.607l-55.606-55.606v-8.787zm-195 119.169c-50.689-6.467-90-49.876-90-102.294v-121.875c0-24.813 20.187-45 45-45h45zm-45-299.169c0-33.084 26.916-60 60-60s60 26.916 60 60zm165 196.875c0 52.418-39.311 95.827-90 102.294v-269.169h45c24.813 0 45 20.187 45 45z" fill="url(#SVGID_1_)"/></g></g></g></svg>