<svg id="Capa_1" enable-background="new 0 0 512 512" height="512" viewBox="0 0 512 512" width="512" xmlns="http://www.w3.org/2000/svg" xmlns:xlink="http://www.w3.org/1999/xlink"><linearGradient id="SVGID_1_" gradientUnits="userSpaceOnUse" x1="256" x2="256" y1="481" y2="31"><stop offset="0" stop-color="#67757c"/><stop offset="1" stop-color="#67757c"/></linearGradient><g><g><path d="m497 451h-16v-285c0-8.291-6.709-15-15-15h-180c-8.291 0-15 6.709-15 15v285h-30v-405c0-8.291-6.709-15-15-15h-180c-8.291 0-15 6.709-15 15v405h-16c-8.291 0-15 6.709-15 15s6.709 15 15 15h482c8.291 0 15-6.709 15-15s-6.709-15-15-15zm-346 0h-30v-60h30zm60 0h-30v-75c0-8.291-6.709-15-15-15h-60c-8.291 0-15 6.709-15 15v75h-30v-390h150zm180 0h-30v-60h30zm60 0h-30v-75c0-8.291-6.709-15-15-15h-60c-8.291 0-15 6.709-15 15v75h-30v-270h150zm-345-210h60c8.291 0 15-6.709 15-15s-6.709-15-15-15h-60c-8.291 0-15 6.709-15 15s6.709 15 15 15zm0 60h60c8.291 0 15-6.709 15-15s-6.709-15-15-15h-60c-8.291 0-15 6.709-15 15s6.709 15 15 15zm0-180h60c8.291 0 15-6.709 15-15s-6.709-15-15-15h-60c-8.291 0-15 6.709-15 15s6.709 15 15 15zm0 60h60c8.291 0 15-6.709 15-15s-6.709-15-15-15h-60c-8.291 0-15 6.709-15 15s6.709 15 15 15zm240 60h60c8.291 0 15-6.709 15-15s-6.709-15-15-15h-60c-8.291 0-15 6.709-15 15s6.709 15 15 15zm0 60h60c8.291 0 15-6.709 15-15s-6.709-15-15-15h-60c-8.291 0-15 6.709-15 15s6.709 15 15 15z" fill="url(#SVGID_1_)"/></g></g></svg>