<svg id="Capa_1" enable-background="new 0 0 512 512" height="512" viewBox="0 0 512 512" width="512" xmlns="http://www.w3.org/2000/svg" xmlns:xlink="http://www.w3.org/1999/xlink"><linearGradient id="SVGID_1_" gradientUnits="userSpaceOnUse" x1="256" x2="256" y1="512" y2="0"><stop offset="0" stop-color="#67757c"/><stop offset="1" stop-color="#67757c"/></linearGradient><g><g><path d="m436 180h-30c-8.291 0-15 6.709-15 15v90c0 8.276-6.724 15-15 15h-17.763c-6.213-17.422-22.707-30-42.237-30h-45v-30h45c24.814 0 45-20.186 45-45v-90c0-57.891-47.109-105-105-105s-105 47.109-105 105v90c0 24.814 20.186 45 45 45h45v30h-45c-19.53 0-36.024 12.578-42.237 30h-17.763c-8.276 0-15-6.724-15-15v-90c0-8.291-6.709-15-15-15h-30c-8.291 0-15 6.709-15 15s6.709 15 15 15h15v75c0 24.814 20.186 45 45 45h17.763c6.213 17.422 22.707 30 42.237 30h45v62h-75c-24.814 0-45 20.186-45 45s20.186 45 45 45 45-20.186 45-45c0-5.284-1.082-10.285-2.763-15h32.763v45c0 8.291 6.709 15 15 15s15-6.709 15-15v-45h32.763c-1.681 4.715-2.763 9.716-2.763 15 0 24.814 20.186 45 45 45s45-20.186 45-45-20.186-45-45-45h-75v-62h45c19.53 0 36.024-12.578 42.237-30h17.763c24.814 0 45-20.186 45-45v-75h15c8.291 0 15-6.709 15-15s-6.709-15-15-15zm-270 302c-8.276 0-15-6.724-15-15s6.724-15 15-15 15 6.724 15 15-6.724 15-15 15zm180-30c8.276 0 15 6.724 15 15s-6.724 15-15 15-15-6.724-15-15 6.724-15 15-15zm-150-242c-8.276 0-15-6.724-15-15v-90c0-41.353 33.647-75 75-75s75 33.647 75 75v90c0 8.276-6.724 15-15 15zm120 120h-120c-8.276 0-15-6.724-15-15s6.724-15 15-15h120c8.276 0 15 6.724 15 15s-6.724 15-15 15z" fill="url(#SVGID_1_)"/></g></g></svg>