<svg id="Capa_1" enable-background="new 0 0 512 512" height="512" viewBox="0 0 512 512" width="512" xmlns="http://www.w3.org/2000/svg" xmlns:xlink="http://www.w3.org/1999/xlink"><linearGradient id="SVGID_1_" gradientUnits="userSpaceOnUse" x1="256" x2="256" y1="481" y2="31"><stop offset="0" stop-color="#67757c"/><stop offset="1" stop-color="#67757c"/></linearGradient><g><g><g><path d="m256 301c-24.813 0-45 20.187-45 45s20.187 45 45 45 45-20.187 45-45-20.187-45-45-45zm0 60c-8.271 0-15-6.729-15-15s6.729-15 15-15 15 6.729 15 15-6.729 15-15 15zm165-210c0-66.168-53.832-120-120-120-31.703 0-61.948 12.795-84.484 35.434-39.926-12.486-83.497-3.147-114.779 24.751-18.95 16.9-32.011 39.328-37.439 63.983-37.456 11.583-64.298 46.087-64.298 85.832 0 49.55 41.067 90 91 90h49.019l11.381 6.571c-.268 2.901-.4 5.699-.4 8.429s.132 5.528.4 8.429l-21.823 12.599c-3.445 1.989-5.959 5.265-6.989 9.108s-.491 7.937 1.499 11.382l30 51.962c1.989 3.445 5.265 5.959 9.108 6.989 3.841 1.029 7.937.49 11.382-1.499l22.164-12.797c4.544 3.143 9.304 5.906 14.259 8.279v25.548c0 8.284 6.716 15 15 15h60c8.284 0 15-6.716 15-15v-25.546c4.954-2.372 9.715-5.137 14.259-8.28l22.164 12.797c3.444 1.989 7.539 2.528 11.382 1.499 3.843-1.03 7.12-3.544 9.108-6.989l30-51.962c1.989-3.445 2.528-7.54 1.499-11.382s-3.543-7.119-6.989-9.108l-21.823-12.6c.268-2.901.4-5.699.4-8.429s-.132-5.528-.4-8.429l11.381-6.571h49.019c49.921 0 91-40.43 91-90 0-49.551-41.05-90-91-90zm-91.403 181.363c1.867 10.091 1.87 17.167 0 27.274-1.156 6.246 1.749 12.543 7.25 15.719l17.586 10.153-15 25.98-17.85-10.306c-5.501-3.177-12.406-2.543-17.237 1.579-7.004 5.977-14.872 10.546-23.384 13.58-5.974 2.13-9.963 7.787-9.963 14.129v20.529h-30v-20.53c0-6.343-3.989-11.999-9.963-14.129-8.514-3.035-16.381-7.604-23.383-13.578-4.832-4.123-11.737-4.755-17.237-1.579l-17.85 10.306-15-25.98 17.586-10.153c5.501-3.176 8.405-9.473 7.25-15.719-1.867-10.091-1.87-17.167 0-27.274 1.156-6.246-1.749-12.543-7.25-15.719l-17.586-10.153 15-25.98 17.85 10.306c5.5 3.177 12.404 2.543 17.237-1.579 7.004-5.976 14.872-10.545 23.384-13.58 5.974-2.13 9.963-7.787 9.963-14.129v-20.53h30v20.528c0 6.342 3.989 11.999 9.963 14.129 8.512 3.034 16.379 7.603 23.384 13.58 4.832 4.123 11.737 4.756 17.237 1.579l17.85-10.306 15 25.98-17.586 10.153c-5.502 3.177-8.407 9.474-7.251 15.72zm91.403-31.363h-35.096l-27.99-48.481c-1.989-3.445-5.265-5.959-9.108-6.989-3.842-1.029-7.937-.491-11.382 1.499l-22.164 12.797c-4.544-3.144-9.305-5.908-14.259-8.28v-25.546c0-8.284-6.716-15-15-15h-60c-8.284 0-15 6.716-15 15v25.546c-4.953 2.372-9.715 5.137-14.259 8.28l-22.164-12.797c-3.445-1.99-7.54-2.529-11.382-1.499-3.843 1.03-7.12 3.544-9.108 6.989l-27.992 48.481h-35.096c-33.636 0-61-26.916-61-60 0-28.308 21.534-53.618 50.089-58.875 6.401-1.178 11.312-6.35 12.158-12.803 7.586-57.902 67.853-94.13 122.887-71.519 6.046 2.484 13.003.767 17.2-4.242 17.333-20.693 42.361-32.561 68.666-32.561 49.626 0 90 40.374 90 90 0 3.987-.723 8.498-1.359 12.86-1.301 9.03 5.708 17.14 14.847 17.14h16.512c33.636 0 61 26.916 61 60s-27.364 60-61 60z" fill="url(#SVGID_1_)"/></g></g></g></svg>