<svg id="Capa_1" enable-background="new 0 0 512 512" height="512" viewBox="0 0 512 512" width="512" xmlns="http://www.w3.org/2000/svg" xmlns:xlink="http://www.w3.org/1999/xlink"><linearGradient id="SVGID_1_" gradientUnits="userSpaceOnUse" x1="256" x2="256" y1="512" y2="0"><stop offset="0" stop-color="#67757c"/><stop offset="1" stop-color="#67757c"/></linearGradient><g><g><g><path d="m486.135 312.371c-9.656-4.828-21.441-8.08-34.135-9.521v-45.85c0-8.284-6.716-15-15-15h-166v-62h75c33.084 0 60-26.916 60-60 0-28.337-19.744-52.148-46.199-58.398-6.334-34.986-37.017-61.602-73.801-61.602-24.453 0-47.185 12.099-61.087 31.713-25.702-6.404-52.756 5.527-65.916 28.693-29.797 3.48-52.997 28.879-52.997 59.594 0 33.084 26.916 60 60 60h75v62h-166c-8.284 0-15 6.716-15 15v45.85c-12.694 1.441-24.479 4.693-34.135 9.521-16.679 8.339-25.865 20.638-25.865 34.629v120c0 13.991 9.186 26.29 25.865 34.629 13.375 6.688 30.825 10.371 49.135 10.371s35.76-3.683 49.135-10.371c16.679-8.339 25.865-20.638 25.865-34.629v-120c0-13.991-9.186-26.29-25.865-34.629-9.656-4.828-21.441-8.08-34.135-9.521v-30.85h151v30.85c-12.694 1.441-24.479 4.693-34.135 9.521-16.679 8.339-25.865 20.638-25.865 34.629v120c0 13.991 9.186 26.29 25.865 34.629 13.375 6.688 30.825 10.371 49.135 10.371s35.76-3.683 49.135-10.371c16.679-8.339 25.865-20.638 25.865-34.629v-120c0-13.991-9.186-26.29-25.865-34.629-9.656-4.828-21.441-8.08-34.135-9.521v-30.85h151v30.85c-12.694 1.441-24.479 4.693-34.135 9.521-16.679 8.339-25.865 20.638-25.865 34.629v120c0 13.991 9.186 26.29 25.865 34.629 13.375 6.688 30.825 10.371 49.135 10.371s35.76-3.683 49.135-10.371c16.679-8.339 25.865-20.638 25.865-34.629v-120c0-13.991-9.186-26.29-25.865-34.629zm-366.135 154.629c0 .519-1.614 3.962-9.282 7.797-9.155 4.578-22.174 7.203-35.718 7.203s-26.563-2.625-35.718-7.203c-7.668-3.835-9.282-7.278-9.282-7.797v-23.467c12.743 5.474 28.518 8.467 45 8.467s32.257-2.993 45-8.467zm0-60c0 .519-1.614 3.962-9.282 7.797-9.155 4.578-22.174 7.203-35.718 7.203s-26.563-2.625-35.718-7.203c-7.668-3.835-9.282-7.278-9.282-7.797v-23.467c12.743 5.474 28.518 8.467 45 8.467s32.257-2.993 45-8.467zm-9.282-67.797c7.668 3.834 9.282 7.278 9.282 7.797s-1.614 3.962-9.282 7.797c-9.155 4.578-22.174 7.203-35.718 7.203s-26.563-2.625-35.718-7.203c-7.668-3.835-9.282-7.278-9.282-7.797s1.614-3.962 9.282-7.797c9.156-4.578 22.174-7.203 35.718-7.203s26.563 2.625 35.718 7.203zm190.282 127.797c0 .519-1.614 3.962-9.282 7.797-9.155 4.578-22.174 7.203-35.718 7.203s-26.563-2.625-35.718-7.203c-7.668-3.835-9.282-7.278-9.282-7.797v-23.467c12.743 5.474 28.518 8.467 45 8.467s32.257-2.993 45-8.467zm0-60c0 .519-1.614 3.962-9.282 7.797-9.155 4.578-22.174 7.203-35.718 7.203s-26.563-2.625-35.718-7.203c-7.668-3.835-9.282-7.278-9.282-7.797v-23.467c12.743 5.474 28.518 8.467 45 8.467s32.257-2.993 45-8.467zm-9.282-67.797c7.668 3.834 9.282 7.278 9.282 7.797s-1.614 3.962-9.282 7.797c-9.155 4.578-22.174 7.203-35.718 7.203s-26.563-2.625-35.718-7.203c-7.668-3.835-9.282-7.278-9.282-7.797s1.614-3.962 9.282-7.797c9.156-4.578 22.174-7.203 35.718-7.203s26.563 2.625 35.718 7.203zm-125.718-189.203c-16.542 0-30-13.458-30-30s13.458-30 30-30c.549-.148 12.748 1.671 16.888-9.976 5.665-15.938 24.292-25.548 41.747-16.531 7.597 3.924 16.963.709 20.528-7.094 7.326-16.037 23.355-26.399 40.837-26.399 24.813 0 45 20.187 45 45 0 8.284 6.716 15 15 15 16.542 0 30 13.458 30 30s-13.458 30-30 30zm316 317c0 .519-1.614 3.962-9.282 7.797-9.155 4.578-22.174 7.203-35.718 7.203s-26.563-2.625-35.718-7.203c-7.668-3.835-9.282-7.278-9.282-7.797v-23.467c12.743 5.474 28.518 8.467 45 8.467s32.257-2.993 45-8.467zm0-60c0 .519-1.614 3.962-9.282 7.797-9.155 4.578-22.174 7.203-35.718 7.203s-26.563-2.625-35.718-7.203c-7.668-3.835-9.282-7.278-9.282-7.797v-23.467c12.743 5.474 28.518 8.467 45 8.467s32.257-2.993 45-8.467zm-9.282-52.203c-9.155 4.578-22.174 7.203-35.718 7.203s-26.563-2.625-35.718-7.203c-7.668-3.835-9.282-7.278-9.282-7.797s1.614-3.962 9.282-7.797c9.156-4.578 22.174-7.203 35.718-7.203s26.563 2.625 35.718 7.203c7.668 3.834 9.282 7.278 9.282 7.797s-1.614 3.962-9.282 7.797z" fill="url(#SVGID_1_)"/></g></g></g></svg>