<svg id="Capa_1" enable-background="new 0 0 512 512" height="512" viewBox="0 0 512 512" width="512" xmlns="http://www.w3.org/2000/svg" xmlns:xlink="http://www.w3.org/1999/xlink"><linearGradient id="SVGID_1_" gradientUnits="userSpaceOnUse" x1="256" x2="256" y1="512" y2="0"><stop offset="0" stop-color="#67757c"/><stop offset="1" stop-color="#67757c"/></linearGradient><g><g><g><path d="m346 422c-8.284 0-15 6.716-15 15v45h-150v-45c0-8.284-6.716-15-15-15s-15 6.716-15 15v60c0 8.284 6.716 15 15 15h180c8.284 0 15-6.716 15-15v-60c0-8.284-6.716-15-15-15zm75-302c0-66.168-53.832-120-120-120-31.701 0-61.949 12.798-84.484 35.435-39.923-12.486-83.497-3.147-114.779 24.751-18.95 16.899-32.011 39.328-37.439 63.983-37.455 11.581-64.298 46.086-64.298 85.831 0 49.517 41.033 90 91 90h120v32h-45c-6.067 0-11.537 3.655-13.858 9.26s-1.038 12.057 3.252 16.347l90 90c2.928 2.929 6.767 4.393 10.606 4.393s7.678-1.464 10.606-4.394l90-90c4.29-4.29 5.574-10.742 3.252-16.347s-7.791-9.259-13.858-9.259h-45v-32h120c49.919 0 91-40.428 91-90 0-49.551-41.066-90-91-90zm-111.213 242-53.787 53.787-53.787-53.787h23.787c8.284 0 15-6.716 15-15v-107h30v107c0 8.284 6.716 15 15 15zm111.213-92h-120v-45c0-8.284-6.716-15-15-15h-60c-8.284 0-15 6.716-15 15v45h-120c-33.636 0-61-26.916-61-60 0-28.308 21.534-53.618 50.089-58.875 6.401-1.178 11.312-6.35 12.158-12.803 7.605-58.045 67.976-94.082 122.887-71.519 6.047 2.485 13.004.768 17.2-4.243 17.333-20.692 42.36-32.56 68.666-32.56 49.626 0 90 40.374 90 90 0 3.987-.723 8.498-1.359 12.86-1.301 9.031 5.709 17.14 14.847 17.14h16.512c33.636 0 61 26.916 61 60s-27.364 60-61 60z" fill="url(#SVGID_1_)"/></g></g></g></svg>