<svg id="Capa_1" enable-background="new 0 0 512.001 512.001" height="512" viewBox="0 0 512.001 512.001" width="512" xmlns="http://www.w3.org/2000/svg" xmlns:xlink="http://www.w3.org/1999/xlink"><linearGradient id="SVGID_1_" gradientUnits="userSpaceOnUse" x1="256" x2="256" y1="512.001" y2="0"><stop offset="0" stop-color="#67757c"/><stop offset="1" stop-color="#67757c"/></linearGradient><g><g><g><path d="m497 210.001h-167.596c19.483-19.073 31.596-45.646 31.596-75 0-57.15-63.93-100.638-66.651-102.462-4.601-3.083-10.528-3.379-15.411-.772-4.886 2.608-7.938 7.696-7.938 13.234v60c0 8.271-6.729 15-15 15s-15-6.729-15-15v-90c0-6.281-3.913-11.897-9.806-14.072s-12.516-.449-16.597 4.326c-2.596 3.038-63.597 75.037-63.597 129.746 0 29.354 12.113 55.927 31.596 75h-167.596c-8.284 0-15 6.716-15 15v272c0 8.284 6.716 15 15 15h482c8.284 0 15-6.716 15-15v-272c0-8.284-6.715-15-15-15zm-316-75c0-21.841 14.805-50.746 30-74.287v44.287c0 24.813 20.187 45 45 45s45-20.187 45-45v-27.729c14.922 15.203 30 36.275 30 57.729 0 41.355-33.645 75-75 75s-75-33.645-75-75zm-30 105h210v61h-210zm-121 0h91v61h-91zm0 91h211v60h-211zm91 151h-91v-61h91zm240 0h-210v-61h210zm121 0h-91v-61h91zm0-91h-211v-60h211zm0-90h-91v-61h91z" fill="url(#SVGID_1_)"/></g></g></g></svg>