<svg id="Capa_1" enable-background="new 0 0 512 512" height="512" viewBox="0 0 512 512" width="512" xmlns="http://www.w3.org/2000/svg" xmlns:xlink="http://www.w3.org/1999/xlink"><linearGradient id="SVGID_1_" gradientUnits="userSpaceOnUse" x1="256" x2="256" y1="512" y2="0"><stop offset="0" stop-color="#67757c"/><stop offset="1" stop-color="#67757c"/></linearGradient><g><g><g><path d="m497 302h-60c-3.979 0-7.794 1.581-10.606 4.394l-25.607 25.606h-8.787v-75c0-8.284-6.716-15-15-15h-106v-62h75c33.084 0 60-26.916 60-60 0-28.337-19.744-52.148-46.198-58.398-6.334-34.986-37.018-61.602-73.802-61.602-24.452 0-47.184 12.099-61.087 31.713-25.755-6.417-52.782 5.573-65.916 28.693-29.797 3.48-52.997 28.879-52.997 59.594 0 33.084 26.916 60 60 60h75v62h-106c-8.284 0-15 6.716-15 15v75h-8.787l-25.606-25.606c-2.813-2.813-6.628-4.394-10.607-4.394h-60c-8.284 0-15 6.716-15 15v180c0 8.284 6.716 15 15 15h211c8.284 0 15-6.716 15-15v-150c0-8.284-6.716-15-15-15h-76v-60h212v60h-76c-8.284 0-15 6.716-15 15v150c0 8.284 6.716 15 15 15h211c8.284 0 15-6.716 15-15v-180c0-8.284-6.716-15-15-15zm-286 180h-181v-60h181zm0-120v30h-181v-60h38.787l25.606 25.606c2.813 2.813 6.628 4.394 10.607 4.394zm-45-212c-16.542 0-30-13.458-30-30s13.458-30 30-30c.549-.148 12.748 1.671 16.888-9.976 5.664-15.937 24.292-25.549 41.746-16.532 7.596 3.924 16.963.711 20.528-7.093 7.327-16.037 23.357-26.399 40.838-26.399 24.813 0 45 20.187 45 45 0 8.284 6.716 15 15 15 16.542 0 30 13.458 30 30s-13.458 30-30 30zm316 332h-181v-60h181zm0-90h-181v-30h106c3.979 0 7.794-1.581 10.606-4.394l25.607-25.606h38.787z" fill="url(#SVGID_1_)"/></g></g></g></svg>