<svg id="Capa_1" enable-background="new 0 0 512 512" height="512" viewBox="0 0 512 512" width="512" xmlns="http://www.w3.org/2000/svg" xmlns:xlink="http://www.w3.org/1999/xlink"><linearGradient id="SVGID_1_" gradientUnits="userSpaceOnUse" x1="256" x2="256" y1="512" y2="0"><stop offset="0" stop-color="#67757c"/><stop offset="1" stop-color="#67757c"/></linearGradient><g><g><g><path d="m286 60c8.284 0 15-6.716 15-15v-30c0-8.284-6.716-15-15-15s-15 6.716-15 15v30c0 8.284 6.716 15 15 15zm150 30h-360c-8.284 0-15 6.716-15 15v60c0 8.284 6.716 15 15 15h22.19l97.81 139.728v87.272c0 8.284 6.716 15 15 15h90c8.284 0 15-6.716 15-15v-87.272l97.81-139.728h22.19c8.284 0 15-6.716 15-15v-60c0-8.284-6.716-15-15-15zm-147.289 216.398c-1.764 2.521-2.711 5.524-2.711 8.602v77h-60v-77c0-3.078-.947-6.081-2.711-8.602l-88.479-126.398h242.38zm132.289-156.398h-330v-30h330zm-195-90c8.284 0 15-6.716 15-15v-30c0-8.284-6.716-15-15-15s-15 6.716-15 15v30c0 8.284 6.716 15 15 15zm120 0c8.284 0 15-6.716 15-15v-30c0-8.284-6.716-15-15-15s-15 6.716-15 15v30c0 8.284 6.716 15 15 15zm-180 0c8.284 0 15-6.716 15-15v-30c0-8.284-6.716-15-15-15s-15 6.716-15 15v30c0 8.284 6.716 15 15 15zm90 392c-8.284 0-15 6.716-15 15v30c0 8.284 6.716 15 15 15s15-6.716 15-15v-30c0-8.284-6.716-15-15-15z" fill="url(#SVGID_1_)"/></g></g></g></svg>