<svg id="Capa_1" enable-background="new 0 0 511.983 511.983" height="512" viewBox="0 0 511.983 511.983" width="512" xmlns="http://www.w3.org/2000/svg" xmlns:xlink="http://www.w3.org/1999/xlink"><linearGradient id="SVGID_1_" gradientUnits="userSpaceOnUse" x1="255.992" x2="255.992" y1="511.983" y2="0"><stop offset="0" stop-color="#67757c"/><stop offset="1" stop-color="#67757c"/></linearGradient><g><g><path d="m341.597 206.589 34.395-34.395v83.789c0 8.291 6.709 15 15 15s15-6.709 15-15v-83.789l34.395 34.395c5.859 5.859 15.351 5.859 21.211 0 5.859-5.859 5.859-15.352 0-21.211l-59.982-59.981c-1.388-1.392-3.051-2.496-4.896-3.26-3.666-1.516-7.789-1.516-11.455 0-1.846.764-3.508 1.868-4.896 3.26l-59.982 59.981c-5.859 5.859-5.859 15.352 0 21.211s15.351 5.859 21.21 0zm-270-121 34.395-34.395v83.789c0 8.291 6.709 15 15 15s15-6.709 15-15v-83.789l34.395 34.395c5.859 5.859 15.351 5.859 21.211 0 5.859-5.859 5.859-15.352 0-21.211l-59.983-59.982c-1.388-1.392-3.051-2.496-4.896-3.26-3.666-1.516-7.789-1.516-11.455 0-1.846.764-3.508 1.868-4.896 3.26l-59.982 59.982c-5.859 5.859-5.859 15.352 0 21.211s15.352 5.859 21.211 0zm139.395 125.394h-180c-8.291 0-15 6.709-15 15v271c0 8.291 6.709 15 15 15h180c8.291 0 15-6.709 15-15v-271c0-8.291-6.709-15-15-15zm-15 271h-150v-61h150zm0-91h-150v-60h150zm0-90h-150v-60h150zm285 0h-180c-8.291 0-15 6.709-15 15v181c0 8.291 6.709 15 15 15h180c8.291 0 15-6.709 15-15v-181c0-8.291-6.709-15-15-15zm-15 181h-150v-61h150zm0-91h-150v-60h150z" fill="url(#SVGID_1_)"/></g></g></svg>