<svg id="Capa_1" enable-background="new 0 0 512 512" height="512" viewBox="0 0 512 512" width="512" xmlns="http://www.w3.org/2000/svg" xmlns:xlink="http://www.w3.org/1999/xlink"><linearGradient id="SVGID_1_" gradientUnits="userSpaceOnUse" x1="256" x2="256" y1="512" y2="0"><stop offset="0" stop-color="#67757c"/><stop offset="1" stop-color="#67757c"/></linearGradient><g><g><g><path d="m376 151h-240c-8.284 0-15 6.716-15 15v120c0 8.284 6.716 15 15 15h15v15c0 8.284 6.716 15 15 15h15v15c0 8.284 6.716 15 15 15h120c8.284 0 15-6.716 15-15v-15h15c8.284 0 15-6.716 15-15v-15h15c8.284 0 15-6.716 15-15v-120c0-8.284-6.716-15-15-15zm-15 120h-15c-8.284 0-15 6.716-15 15v15h-15c-8.284 0-15 6.716-15 15v15h-90v-15c0-8.284-6.716-15-15-15h-15v-15c0-8.284-6.716-15-15-15h-15v-90h30v45c0 8.284 6.716 15 15 15s15-6.716 15-15v-45h30v45c0 8.284 6.716 15 15 15s15-6.716 15-15v-45h30v45c0 8.284 6.716 15 15 15s15-6.716 15-15v-45h30zm136-271h-482c-8.284 0-15 6.716-15 15v482c0 8.284 6.716 15 15 15h482c8.284 0 15-6.716 15-15v-482c0-8.284-6.716-15-15-15zm-15 482h-452v-452h452zm-406-31h360c8.284 0 15-6.716 15-15v-360c0-8.284-6.716-15-15-15h-360c-8.284 0-15 6.716-15 15v360c0 8.284 6.716 15 15 15zm15-360h330v330h-330z" fill="url(#SVGID_1_)"/></g></g></g></svg>