<svg id="Capa_1" enable-background="new 0 0 512.047 512.047" height="512" viewBox="0 0 512.047 512.047" width="512" xmlns="http://www.w3.org/2000/svg" xmlns:xlink="http://www.w3.org/1999/xlink"><linearGradient id="SVGID_1_" gradientUnits="userSpaceOnUse" x1="30.777" x2="481.27" y1="481.27" y2="30.777"><stop offset="0" stop-color="#67757c"/><stop offset="1" stop-color="#67757c"/></linearGradient><g><g><g><path d="m481.27 30.777c-40.939-40.939-107.553-40.939-148.492 0l-87.36 87.36c-26.355 26.355-36.394 64.401-27.647 99.632-35.232-8.747-73.277 1.292-99.632 27.647l-87.36 87.36c-41.034 41.034-41.04 107.453 0 148.493 40.939 40.938 107.552 40.94 148.492 0l87.36-87.361c26.354-26.354 36.393-64.397 27.648-99.627 35.542 8.824 73.491-1.513 99.631-27.652l87.36-87.36c41.033-41.033 41.039-107.452 0-148.492zm-235.853 341.919-87.36 87.361c-29.242 29.243-76.824 29.243-106.066 0-29.309-29.308-29.314-76.753 0-106.066l87.36-87.36c16.962-16.963 40.702-24.463 63.642-21.216-12.741 12.741-115.607 115.607-129.789 129.789-17.565 17.564-17.567 46.073 0 63.64 17.544 17.545 46.093 17.546 63.639 0 7.114-7.114 122.666-122.666 129.79-129.789 3.247 22.939-4.253 46.678-21.216 63.641zm-93.635 8.782-36.152 36.152c-5.848 5.849-15.365 5.849-21.213 0-5.842-5.843-5.84-15.371 0-21.213l36.152-36.152c2.142 4.497 5.064 8.713 8.782 12.431 3.718 3.718 7.934 6.64 12.431 8.782zm29.995-29.995c-5.862 5.862-15.351 5.863-21.214 0-5.849-5.849-5.848-15.365 0-21.213l169.707-169.706c5.85-5.849 15.367-5.849 21.213 0 5.849 5.849 5.85 15.365.001 21.214zm278.28-193.427-87.36 87.36c-16.963 16.963-40.702 24.463-63.642 21.215 13.537-13.537 115.21-115.211 129.788-129.789 17.565-17.564 17.567-46.073 0-63.64-17.545-17.545-46.094-17.545-63.639 0-7.114 7.114-122.666 122.666-129.79 129.789-3.247-22.94 4.253-46.679 21.215-63.642l87.36-87.36c29.242-29.242 76.824-29.242 106.066 0 29.311 29.31 29.315 76.755.002 106.067zm-99.792-27.487 36.152-36.152c5.848-5.848 15.365-5.848 21.213 0 5.842 5.842 5.84 15.372 0 21.213l-36.152 36.152c-2.142-4.497-5.063-8.713-8.782-12.431-3.718-3.718-7.933-6.64-12.431-8.782z" fill="url(#SVGID_1_)"/></g></g></g></svg>