<svg id="Capa_1" enable-background="new 0 0 512 512" height="512" viewBox="0 0 512 512" width="512" xmlns="http://www.w3.org/2000/svg" xmlns:xlink="http://www.w3.org/1999/xlink"><linearGradient id="SVGID_1_" gradientUnits="userSpaceOnUse" x1="256" x2="256" y1="512" y2="0"><stop offset="0" stop-color="#67757c"/><stop offset="1" stop-color="#67757c"/></linearGradient><g><g><path d="m316 60c0-33.091-26.909-60-60-60s-60 26.909-60 60 26.909 60 60 60 60-26.909 60-60zm-60 30c-16.538 0-30-13.462-30-30s13.462-30 30-30 30 13.462 30 30-13.462 30-30 30zm-90 272c0-27.881-19.193-51.163-45-57.871v-32.129h120v32.129c-25.807 6.708-45 29.989-45 57.871 0 33.091 26.909 60 60 60s60-26.909 60-60c0-27.881-19.193-51.163-45-57.871v-32.129h120v32.129c-25.807 6.708-45 29.989-45 57.871 0 33.091 26.909 60 60 60s60-26.909 60-60c0-27.881-19.193-51.163-45-57.871v-47.129c0-8.291-6.709-15-15-15h-135v-32h60c8.291 0 15-6.709 15-15 0-41.353-33.647-75-75-75h-15-15c-41.353 0-75 33.647-75 75 0 8.291 6.709 15 15 15h60v32h-135c-8.291 0-15 6.709-15 15v47.129c-25.807 6.708-45 29.99-45 57.871 0 33.091 26.909 60 60 60s60-26.909 60-60zm270 0c0 16.538-13.462 30-30 30s-30-13.462-30-30 13.462-30 30-30 30 13.462 30 30zm-237.437-182c6.196-17.461 22.881-30 42.437-30h30c19.556 0 36.24 12.539 42.437 30zm57.437 152c16.538 0 30 13.462 30 30s-13.462 30-30 30-30-13.462-30-30 13.462-30 30-30zm-150 60c-16.538 0-30-13.462-30-30s13.462-30 30-30 30 13.462 30 30-13.462 30-30 30zm315 30h-15-15c-24.62 0-46.318 12.085-60 30.463-13.682-18.378-35.38-30.463-60-30.463h-15-15c-24.62 0-46.318 12.085-60 30.463-13.682-18.378-35.38-30.463-60-30.463h-15-15c-41.353 0-75 33.647-75 75 0 8.291 6.709 15 15 15h450c8.291 0 15-6.709 15-15 0-41.353-33.647-75-75-75zm-372.437 60c6.197-17.461 22.881-30 42.437-30h30c19.556 0 36.24 12.539 42.437 30zm150 0c6.196-17.461 22.881-30 42.437-30h30c19.556 0 36.24 12.539 42.437 30zm150 0c6.196-17.461 22.881-30 42.437-30h30c19.556 0 36.24 12.539 42.437 30z" fill="url(#SVGID_1_)"/></g></g></svg>