<svg id="Capa_1" enable-background="new 0 0 512 512" height="512" viewBox="0 0 512 512" width="512" xmlns="http://www.w3.org/2000/svg" xmlns:xlink="http://www.w3.org/1999/xlink"><linearGradient id="SVGID_1_" gradientUnits="userSpaceOnUse" x1="256" x2="256" y1="481" y2="31"><stop offset="0" stop-color="#67757c"/><stop offset="1" stop-color="#67757c"/></linearGradient><g><g><g><path d="m376 91h-180c-8.284 0-15 6.716-15 15s6.716 15 15 15h180c8.284 0 15-6.716 15-15s-6.716-15-15-15zm121 330h-198.58c-4.527-12.764-14.656-22.893-27.42-27.42v-32.58h165c8.284 0 15-6.716 15-15v-120c0-8.284-6.716-15-15-15h-165v-30h165c8.284 0 15-6.716 15-15v-120c0-8.284-6.716-15-15-15h-360c-8.284 0-15 6.716-15 15v120c0 8.284 6.716 15 15 15h165v30h-165c-8.284 0-15 6.716-15 15v120c0 8.284 6.716 15 15 15h165v32.58c-12.764 4.527-22.893 14.656-27.42 27.42h-198.58c-8.284 0-15 6.716-15 15s6.716 15 15 15h198.58c6.192 17.458 22.865 30 42.42 30s36.228-12.542 42.42-30h198.58c8.284 0 15-6.716 15-15s-6.716-15-15-15zm-406-270v-90h330v90zm0 180v-90h330v90zm165 120c-8.271 0-15-6.729-15-15s6.729-15 15-15 15 6.729 15 15-6.729 15-15 15zm-120-360c-8.284 0-15 6.716-15 15s6.716 15 15 15 15-6.716 15-15-6.716-15-15-15zm240 180h-180c-8.284 0-15 6.716-15 15s6.716 15 15 15h180c8.284 0 15-6.716 15-15s-6.716-15-15-15zm-240 0c-8.284 0-15 6.716-15 15s6.716 15 15 15 15-6.716 15-15-6.716-15-15-15z" fill="url(#SVGID_1_)"/></g></g></g></svg>