<svg id="Capa_1" enable-background="new 0 0 512 512" height="512" viewBox="0 0 512 512" width="512" xmlns="http://www.w3.org/2000/svg" xmlns:xlink="http://www.w3.org/1999/xlink"><linearGradient id="SVGID_1_" gradientUnits="userSpaceOnUse" x1="256" x2="256" y1="496" y2="16"><stop offset="0" stop-color="#67757c"/><stop offset="1" stop-color="#67757c"/></linearGradient><g><g><g><path d="m497 16h-210c-8.284 0-15 6.716-15 15v45h-109.58c-6.192-17.458-22.865-30-42.42-30-24.813 0-45 20.187-45 45 0 19.555 12.541 36.228 30 42.42v122.58h-90c-8.284 0-15 6.716-15 15v150c0 8.284 6.716 15 15 15h55.789l-10.34 41.362c-2.37 9.471 4.81 18.638 14.551 18.638h90c9.762 0 16.916-9.187 14.552-18.638l-10.341-41.362h55.789c8.284 0 15-6.716 15-15v-45h109.58c6.192 17.458 22.865 30 42.42 30 24.813 0 45-20.187 45-45 0-19.555-12.541-36.228-30-42.42v-62.58h30c9.762 0 16.916-9.187 14.552-18.638l-10.341-41.362h55.789c8.284 0 15-6.716 15-15v-150c0-8.284-6.716-15-15-15zm-377 60c8.271 0 15 6.729 15 15s-6.729 15-15 15-15-6.729-15-15 6.729-15 15-15zm-25.788 390 7.5-30h36.577l7.5 30zm115.788-60h-180v-120h180zm139.58-60h-109.58v-75c0-8.284-6.716-15-15-15h-90v-122.58c12.764-4.527 22.893-14.656 27.42-27.42h109.58v75c0 8.284 6.716 15 15 15h55.789l-10.34 41.362c-2.37 9.471 4.81 18.638 14.551 18.638h30v62.58c-12.764 4.527-22.893 14.656-27.42 27.42zm42.42 30c-8.271 0-15-6.729-15-15s6.729-15 15-15 15 6.729 15 15-6.729 15-15 15zm-25.788-150 7.5-30h36.577l7.5 30zm115.788-60h-180v-120h180z" fill="url(#SVGID_1_)"/></g></g></g></svg>