<svg id="Capa_1" enable-background="new 0 0 512 512" height="512" viewBox="0 0 512 512" width="512" xmlns="http://www.w3.org/2000/svg" xmlns:xlink="http://www.w3.org/1999/xlink"><linearGradient id="SVGID_1_" gradientTransform="matrix(1 0 0 -1 0 514)" gradientUnits="userSpaceOnUse" x1="256" x2="256" y1="2" y2="514"><stop offset="0" stop-color="#67757c"/><stop offset="1" stop-color="#67757c"/></linearGradient><g><path d="m291 218.5c0 8.284 6.716 15 15 15s15-6.716 15-15c0-14.638-7.524-28.676-20.645-38.517-8.32-6.24-18.426-10.536-29.355-12.593v-1.39c0-8.284-6.716-15-15-15s-15 6.716-15 15v1.391c-10.929 2.057-21.036 6.353-29.355 12.593-13.121 9.84-20.645 23.878-20.645 38.516s7.524 28.676 20.645 38.517c8.32 6.24 18.426 10.536 29.355 12.593v44.054c-11.61-3.753-20-11.58-20-20.164 0-8.284-6.716-15-15-15s-15 6.716-15 15c0 14.638 7.524 28.676 20.645 38.517 8.32 6.24 18.426 10.536 29.355 12.593v1.39c0 8.284 6.716 15 15 15s15-6.716 15-15v-1.391c10.929-2.057 21.036-6.353 29.355-12.593 13.121-9.84 20.645-23.878 20.645-38.516s-7.524-28.676-20.645-38.517c-8.32-6.24-18.426-10.536-29.355-12.593v-44.054c11.61 3.753 20 11.58 20 20.164zm-50 20.164c-11.61-3.753-20-11.58-20-20.164s8.39-16.411 20-20.164zm50 54.836c0 8.584-8.39 16.411-20 20.164v-40.328c11.61 3.753 20 11.58 20 20.164zm-35-202.5c-90.981 0-165 74.019-165 165s74.019 165 165 165 165-74.019 165-165-74.019-165-165-165zm0 300c-74.439 0-135-60.561-135-135s60.561-135 135-135 135 60.561 135 135-60.561 135-135 135zm244.118-211.146c-2.505-7.897-10.937-12.269-18.832-9.765-7.897 2.503-12.27 10.935-9.766 18.832 6.955 21.932 10.48 44.836 10.48 68.079 0 124.065-100.935 225-225 225-46.805 0-91.426-14.297-128.715-40.373 6.806.661 13.411-3.415 15.666-10.178 2.619-7.859-1.628-16.354-9.487-18.974l-63.64-21.213c-5.39-1.799-11.333-.394-15.35 3.624-4.018 4.017-5.421 9.96-3.624 15.35l21.213 63.64c2.096 6.286 7.947 10.261 14.229 10.261 1.572 0 3.172-.249 4.745-.773 7.859-2.62 12.106-11.115 9.487-18.974l-2.338-7.015c44.504 35.171 99.673 54.625 157.814 54.625 68.113 0 132.149-26.525 180.313-74.688s74.687-112.199 74.687-180.312c0-26.323-3.998-52.278-11.882-77.146zm-470.118 75.146c0-124.065 100.935-225 225-225 46.805 0 91.426 14.297 128.715 40.373-6.806-.661-13.411 3.416-15.666 10.178-2.619 7.859 1.628 16.354 9.487 18.974l63.64 21.213c1.554.519 3.154.771 4.741.771 3.916 0 7.75-1.535 10.608-4.394 4.018-4.017 5.421-9.96 3.624-15.35l-21.213-63.64c-2.62-7.86-11.116-12.107-18.974-9.487-7.859 2.62-12.106 11.115-9.487 18.974l2.338 7.015c-44.503-35.173-99.672-54.627-157.813-54.627-68.113 0-132.149 26.525-180.312 74.688s-74.688 112.199-74.688 180.312c0 26.323 3.998 52.278 11.882 77.146 2.026 6.389 7.931 10.47 14.295 10.47 1.502 0 3.029-.228 4.537-.706 7.897-2.503 12.27-10.935 9.766-18.832-6.955-21.931-10.48-44.835-10.48-68.078z" fill="url(#SVGID_1_)"/></g></svg>