<svg id="Capa_1" enable-background="new 0 0 512 512" height="512" viewBox="0 0 512 512" width="512" xmlns="http://www.w3.org/2000/svg" xmlns:xlink="http://www.w3.org/1999/xlink"><linearGradient id="SVGID_1_" gradientUnits="userSpaceOnUse" x1="256" x2="256" y1="391" y2="121"><stop offset="0" stop-color="#67757c"/><stop offset="1" stop-color="#67757c"/></linearGradient><g><g><g><path d="m286 211c8.284 0 15-6.716 15-15s-6.716-15-15-15-15 6.716-15 15 6.716 15 15 15zm-60 0c8.284 0 15-6.716 15-15s-6.716-15-15-15-15 6.716-15 15 6.716 15 15 15zm281.606 111.967-31.819-31.82 10.606-10.607c3.676-3.676 5.187-8.993 3.992-14.053s-4.923-9.14-9.855-10.784l-88.53-29.509v-90.194c0-8.284-6.716-15-15-15h-362c-8.284 0-15 6.716-15 15v120c0 8.284 6.716 15 15 15h332.193l29.51 88.53c1.645 4.932 5.725 8.661 10.784 9.855 5.06 1.195 10.377-.316 14.053-3.992l10.607-10.607 31.819 31.82c2.813 2.813 6.628 4.394 10.606 4.394s7.794-1.58 10.606-4.393l42.427-42.426c5.86-5.858 5.86-15.356.001-21.214zm-145.606-106.773-8.749-2.916c-5.388-1.797-11.333-.394-15.35 3.624-4.018 4.018-5.421 9.96-3.624 15.35l2.916 8.749h-307.193v-90h332zm92.573 138.593-31.819-31.82c-5.856-5.858-15.354-5.858-21.213 0l-4.052 4.052-25.233-75.699c-.01-.029-.016-.06-.026-.089.034.011.07.019.104.03l75.684 25.228-4.051 4.051c-5.858 5.858-5.858 15.355 0 21.213l31.819 31.82zm-348.573-143.787c8.284 0 15-6.716 15-15s-6.716-15-15-15-15 6.716-15 15 6.716 15 15 15zm60 0c8.284 0 15-6.716 15-15s-6.716-15-15-15-15 6.716-15 15 6.716 15 15 15z" fill="url(#SVGID_1_)"/></g></g></g></svg>