<svg id="Capa_1" enable-background="new 0 0 512 512" height="512" viewBox="0 0 512 512" width="512" xmlns="http://www.w3.org/2000/svg" xmlns:xlink="http://www.w3.org/1999/xlink"><linearGradient id="SVGID_1_" gradientUnits="userSpaceOnUse" x1="256" x2="256" y1="512" y2="0"><stop offset="0" stop-color="#67757c"/><stop offset="1" stop-color="#67757c"/></linearGradient><g><g><path d="m256 241c-8.284 0-15 6.714-15 15 0 8.284 6.716 15 15 15s15-6.716 15-15c0-8.286-6.716-15-15-15zm241 0h-46.76c-7.328-95.548-83.692-171.912-179.24-179.24v-46.76c0-8.291-6.709-15-15-15s-15 6.709-15 15v46.76c-95.548 7.328-171.912 83.692-179.24 179.24h-46.76c-8.291 0-15 6.709-15 15s6.709 15 15 15h46.76c7.328 95.548 83.692 171.912 179.24 179.24v46.76c0 8.291 6.709 15 15 15s15-6.709 15-15v-46.76c95.548-7.328 171.912-83.692 179.24-179.24h46.76c8.291 0 15-6.709 15-15s-6.709-15-15-15zm-256-149.24v60.756c-45.807 6.641-81.843 42.676-88.484 88.484h-60.756c7.165-79.021 70.219-142.075 149.24-149.24zm0 328.48c-79.021-7.165-142.075-70.219-149.24-149.24h60.756c6.641 45.807 42.676 81.843 88.484 88.484zm15-119.24c-8.291 0-15 6.709-15 15v13.482c-29.343-5.98-52.502-29.139-58.482-58.482h13.482c8.291 0 15-6.709 15-15s-6.709-15-15-15h-13.482c5.98-29.343 29.139-52.502 58.482-58.482v13.482c0 8.291 6.709 15 15 15s15-6.709 15-15v-13.482c29.343 5.98 52.502 29.139 58.482 58.482h-13.482c-8.291 0-15 6.709-15 15s6.709 15 15 15h13.482c-5.98 29.343-29.139 52.502-58.482 58.482v-13.482c0-8.291-6.709-15-15-15zm15 119.24v-60.756c45.807-6.641 81.843-42.676 88.484-88.484h60.756c-7.165 79.021-70.219 142.075-149.24 149.24zm88.484-179.24c-6.641-45.807-42.676-81.843-88.484-88.484v-60.756c79.021 7.165 142.075 70.219 149.24 149.24z" fill="url(#SVGID_1_)"/></g></g></svg>